<svg viewBox="0 0 56.693 56.693" xml:space="preserve" xmlns="http://www.w3.org/2000/svg"><path d="M6.079 36.215c.104 0 .188-.082.205-.199l.551-4.33-.551-4.428c-.017-.117-.102-.197-.206-.197s-.19.084-.205.197l-.485 4.428.485 4.33c.015.115.102.199.206.199zm-1.626-1.838v.002-.002zm-.197.193c.1 0 .181-.08.197-.191l.427-2.693-.427-2.738c-.015-.113-.097-.193-.197-.193-.103 0-.184.082-.198.195l-.36 2.736.36 2.691c.014.113.096.193.198.193zm4.007-8.136c-.016-.141-.12-.242-.248-.242-.13 0-.234.102-.247.242l-.46 5.254.46 5.061c.013.141.117.242.247.242.128 0 .232-.102.247-.24l.523-5.062-.522-5.255zm1.706 10.757c.15 0 .274-.121.288-.283l.494-5.221-.494-5.396c-.014-.164-.138-.285-.288-.285a.296.296 0 0 0-.29.285l-.436 5.396.436 5.221a.295.295 0 0 0 .29.283zm1.968.086c.176 0 .318-.139.331-.326v.002l.466-5.266-.466-5.008a.337.337 0 0 0-.331-.326.338.338 0 0 0-.332.328l-.41 5.006.41 5.264a.334.334 0 0 0 .332.326zm2.793-5.588-.437-8.145a.381.381 0 0 0-.373-.369.38.38 0 0 0-.373.369l-.385 8.145.385 5.266a.38.38 0 0 0 .373.367.381.381 0 0 0 .373-.369v.002l.437-5.266zm1.19 5.643a.425.425 0 0 0 .416-.412v.004l.407-5.232-.407-10.008a.423.423 0 0 0-.416-.412.421.421 0 0 0-.415.412l-.36 10.008.36 5.23c.01.228.193.41.415.41zm2.017-16.937a.462.462 0 0 0-.458.455l-.336 10.842.336 5.178a.46.46 0 0 0 .458.451.463.463 0 0 0 .457-.453v.004l.379-5.18-.379-10.842a.464.464 0 0 0-.457-.455zm2.031 16.937a.505.505 0 0 0 .5-.496v.002l.35-5.145-.35-11.209a.503.503 0 0 0-.5-.496.504.504 0 0 0-.5.496l-.311 11.207.311 5.146a.505.505 0 0 0 .5.495zm2.049-.006a.545.545 0 0 0 .541-.539v.004l.32-5.098-.32-10.924a.544.544 0 0 0-.541-.537.543.543 0 0 0-.542.537l-.286 10.924.286 5.096a.543.543 0 0 0 .542.537zm2.939-5.633-.292-10.525a.587.587 0 0 0-.584-.58.586.586 0 0 0-.584.582l-.261 10.523.262 5.066a.583.583 0 0 0 1.167-.006v.006l.292-5.066zm1.203 5.653a.634.634 0 0 0 .626-.623v.004l.263-5.031-.263-12.523a.634.634 0 0 0-.626-.623.631.631 0 0 0-.625.623l-.236 12.52.236 5.033c.006.34.285.62.625.62zm2.07-19.974c-.363 0-.662.3-.668.667l-.273 13.657.273 4.959c.006.361.305.66.668.66s.662-.299.668-.664v.004l.297-4.959-.297-13.658a.674.674 0 0 0-.668-.666zm1.895 19.978c.016.002 16.699.01 16.807.01a6.063 6.063 0 1 0-2.344-11.657c-.484-5.465-5.064-9.75-10.654-9.75-1.369 0-2.702.27-3.879.726-.459.177-.58.358-.584.713v19.244a.733.733 0 0 0 .654.714z" fill="#ffd700" class="fill-000000"></path></svg>